<?xml version="1.0" standalone="no"?>
<!DOCTYPE svg PUBLIC "-//W3C//DTD SVG 20010904//EN"
 "http://www.w3.org/TR/2001/REC-SVG-20010904/DTD/svg10.dtd">
<svg version="1.0" xmlns="http://www.w3.org/2000/svg"
 width="750.000000pt" height="750.000000pt" viewBox="0 0 750.000000 750.000000"
 preserveAspectRatio="xMidYMid meet">
<metadata>
Created by potrace 1.16, written by Peter Selinger 2001-2019
</metadata>
<g transform="translate(0.000000,750.000000) scale(0.100000,-0.100000)"
fill="#000000" stroke="none">
<path d="M2876 6885 c-8 -8 -18 -39 -21 -68 -9 -67 -1 -507 9 -528 19 -43 112
-48 145 -8 19 23 20 39 21 307 0 244 -2 282 -15 282 -8 0 -15 7 -15 15 0 21
-103 21 -124 0z"/>
<path d="M1100 6185 c0 -8 -6 -15 -14 -15 -17 0 -26 -22 -26 -63 0 -28 16 -48
127 -154 70 -68 131 -123 135 -123 4 0 8 -7 8 -15 0 -8 4 -15 10 -15 5 0 31
-22 57 -49 51 -53 84 -67 136 -57 22 4 36 15 45 33 28 61 21 71 -142 229 -244
238 -252 244 -297 244 -28 0 -39 -4 -39 -15z"/>
<path d="M4618 6123 c-223 -206 -316 -302 -323 -332 -9 -44 13 -84 55 -97 51
-17 72 -5 190 109 58 56 140 135 183 176 42 40 77 77 77 81 0 5 4 10 8 12 5 2
12 15 16 30 9 40 -43 98 -90 98 -28 0 -47 -13 -116 -77z"/>
<path d="M2670 5890 c-19 -4 -66 -15 -105 -23 -118 -26 -147 -35 -240 -72
-231 -93 -388 -198 -566 -375 -141 -141 -240 -284 -317 -459 -40 -89 -82 -216
-82 -245 0 -12 -4 -26 -9 -31 -12 -13 -41 -243 -41 -327 0 -76 25 -297 39
-341 90 -297 154 -427 290 -597 19 -25 40 -50 46 -56 5 -6 24 -26 40 -45 99
-113 276 -246 440 -331 l90 -46 11 -64 c15 -85 43 -178 55 -178 5 0 9 -8 9
-18 0 -23 68 -121 124 -180 95 -101 244 -183 386 -213 80 -17 191 -18 1887
-19 1937 0 1862 -2 1998 49 59 23 82 35 155 82 64 42 177 160 205 215 11 22
25 46 31 54 21 28 52 135 63 220 26 199 -33 431 -158 620 -92 140 -236 267
-386 340 -108 52 -161 70 -290 95 l-110 22 -22 62 c-55 154 -190 362 -309 476
-51 50 -122 112 -152 135 -19 14 -39 30 -45 35 -48 42 -267 165 -294 165 -7 0
-13 4 -13 9 0 5 -15 13 -32 17 -18 3 -46 12 -63 19 -42 18 -156 50 -249 71
-88 19 -445 26 -563 11 -53 -7 -63 -6 -63 7 0 15 -38 96 -50 106 -3 3 -16 25
-28 49 -30 56 -119 178 -177 237 -25 26 -45 50 -46 53 0 3 -41 40 -90 81 -49
41 -95 81 -103 88 -8 6 -19 12 -24 12 -5 0 -17 9 -27 20 -10 11 -24 20 -31 20
-7 0 -14 4 -16 8 -6 16 -253 140 -328 165 -93 31 -148 46 -200 56 -30 5 -73
14 -95 20 -46 12 -491 13 -545 1z m416 -151 c351 -34 675 -186 914 -428 106
-107 177 -201 240 -317 35 -64 35 -94 1 -94 -39 0 -191 -66 -306 -133 -167
-97 -359 -276 -459 -427 -31 -47 -60 -90 -65 -96 -5 -6 -12 -20 -15 -32 -4
-12 -12 -22 -17 -22 -5 0 -9 -6 -9 -13 0 -7 -8 -28 -18 -47 -10 -19 -27 -63
-38 -97 -21 -67 -29 -73 -118 -73 -46 0 -191 -31 -262 -55 -183 -62 -394 -215
-489 -356 -17 -24 -33 -45 -37 -47 -5 -2 -8 -9 -8 -16 0 -7 -9 -23 -20 -36
-11 -13 -20 -37 -20 -54 0 -21 -3 -27 -9 -18 -10 16 -32 -41 -64 -166 -21 -83
-22 -84 -49 -78 -16 3 -34 10 -41 16 -6 6 -53 38 -104 71 -50 33 -130 96 -177
140 -83 78 -216 237 -216 258 0 5 -6 14 -12 18 -13 8 -118 211 -118 226 0 5
-6 23 -14 40 -25 56 -48 149 -67 277 -24 157 -24 188 1 352 45 307 171 559
390 778 243 244 564 396 909 429 126 12 175 12 297 0z m1867 -934 c232 -35
437 -112 614 -232 84 -56 261 -212 262 -230 1 -7 4 -13 9 -13 9 0 92 -105 92
-118 0 -5 6 -15 14 -21 8 -7 27 -35 41 -63 15 -29 31 -59 36 -67 23 -43 49
-112 49 -133 0 -44 21 -98 43 -112 12 -8 64 -16 117 -20 113 -7 232 -41 343
-99 93 -47 108 -59 201 -153 94 -93 110 -114 160 -209 126 -237 109 -544 -38
-703 -101 -110 -222 -174 -363 -193 -52 -7 -675 -9 -1863 -7 -1948 4 -1783 -1
-1915 55 -112 48 -224 155 -282 272 l-38 76 0 165 c1 156 2 169 29 235 15 39
32 82 38 98 5 15 14 27 19 27 5 0 9 5 9 11 0 24 92 140 161 202 164 150 371
227 609 227 125 0 132 5 155 112 55 255 283 547 558 711 264 159 625 229 940
182z"/>
<path d="M342 4474 c-12 -14 -25 -36 -28 -49 -6 -26 18 -80 41 -88 8 -4 146
-7 306 -8 l291 -2 24 29 c31 37 26 84 -13 119 l-28 24 -285 1 -285 0 -23 -26z"/>
<path d="M1472 3109 c-27 -10 -30 -13 -301 -271 -104 -100 -121 -128 -107
-183 4 -14 11 -25 17 -25 6 0 17 -7 25 -15 38 -37 67 -20 214 119 253 242 270
261 270 300 0 20 -4 36 -10 36 -5 0 -10 6 -10 14 0 8 -3 17 -7 19 -20 12 -70
15 -91 6z"/>
<path d="M3423 1867 c-22 -32 -23 -43 -23 -226 0 -199 4 -221 44 -253 29 -24
56 -22 91 6 l30 24 0 219 c0 213 -1 219 -22 241 -16 15 -35 22 -60 22 -32 0
-42 -6 -60 -33z"/>
<path d="M4182 1873 c-21 -26 -22 -36 -22 -240 0 -207 1 -213 22 -233 32 -29
61 -34 96 -16 42 22 47 52 47 278 -1 183 -1 187 -25 212 -33 37 -88 36 -118
-1z"/>
<path d="M4939 1874 c-23 -25 -24 -31 -27 -206 -4 -209 0 -242 35 -274 31 -29
51 -30 92 -6 l31 17 0 231 0 232 -25 16 c-36 24 -78 20 -106 -10z"/>
<path d="M5693 1876 c-22 -23 -23 -30 -23 -239 l0 -215 31 -26 c17 -14 38 -26
48 -26 17 0 61 26 73 44 4 6 8 107 8 225 0 207 -1 214 -22 237 -16 16 -34 24
-58 24 -24 0 -42 -8 -57 -24z"/>
<path d="M3833 1117 c-7 -7 -19 -17 -27 -24 -22 -18 -29 -106 -24 -283 5 -191
13 -210 83 -210 74 0 75 2 75 243 0 224 -4 257 -26 257 -8 0 -17 7 -20 15 -5
12 -10 13 -20 4 -10 -8 -14 -8 -14 0 0 14 -12 14 -27 -2z"/>
<path d="M4594 1115 c-55 -28 -54 -22 -54 -252 0 -255 3 -263 81 -263 37 0 49
4 49 15 0 8 6 14 13 13 9 -2 12 48 12 227 l0 230 -40 20 c-32 17 -44 19 -61
10z"/>
<path d="M5370 1122 c0 -4 -15 -12 -32 -17 -29 -9 -34 -16 -41 -55 -4 -25 -7
-127 -5 -227 4 -214 7 -223 90 -223 36 0 48 4 48 15 0 9 7 18 15 21 13 5 15
39 15 220 0 136 -4 214 -10 214 -5 0 -10 6 -10 14 0 8 -14 22 -32 30 -36 18
-38 19 -38 8z"/>
</g>
</svg>
